<svg width="66" height="27" viewBox="0 0 66 27" fill="none" xmlns="http://www.w3.org/2000/svg">
<path d="M0.00169622 26.5716C-0.0974648 26.4639 4.20127 23.058 9.58911 17.4273C13.9944 12.8237 15.2509 10.7818 17.3252 10.9959C20.364 11.3085 20.7921 16.0267 23.5687 16.1872C27.111 16.3903 28.935 8.85914 32.4623 9.01659C34.295 9.09706 35.7371 11.2165 36.7405 13.2506C37.4076 14.6363 38.8764 17.1519 41.3392 17.6531C44.1419 18.2236 46.6231 15.7764 48.3908 14.3469C57.2604 7.17116 65.4251 0.00371434 65.421 2.27861e-06C65.4169 -0.00371034 58.2382 6.6362 51.3166 13.4105C45.7321 18.8771 43.3036 21.5041 40.1548 21.0728C36.3196 20.5472 35.5931 16.0558 32.0047 16.0582C27.9444 16.0617 26.5674 21.8118 22.9796 21.433C19.9115 21.1082 19.4247 16.7424 15.8648 16.3228C14.4696 16.1586 13.0932 17.0187 10.3508 18.638C9.63571 19.0601 8.44674 19.8008 4.71201 22.7744C1.41543 25.3978 0.0605851 26.6362 0.00299498 26.5734L0.00169622 26.5716Z" fill="url(#paint0_linear_6_167)"/>
<defs>
<linearGradient id="paint0_linear_6_167" x1="118.549" y1="-17.9675" x2="-66.8662" y2="49.3145" gradientUnits="userSpaceOnUse">
<stop stop-color="#996A00"/>
<stop offset="0.485577" stop-color="#FFB000"/>
<stop offset="1" stop-color="#996A00"/>
</linearGradient>
</defs>
</svg>
